<?xml version="1.0" encoding="UTF-8" ?>
<!DOCTYPE svg PUBLIC "-//W3C//DTD SVG 1.1//EN" "http://www.w3.org/Graphics/SVG/1.1/DTD/svg11.dtd">
<svg width="361pt" height="131pt" viewBox="0 0 361 131" version="1.1" xmlns="http://www.w3.org/2000/svg">
<g id="#ffffffff">
</g>
<g id="#231f20ff">
<path fill="#231f20" opacity="1.00" d=" M 166.55 9.74 C 176.45 7.42 187.24 8.80 196.09 13.87 C 206.18 19.45 213.66 29.58 215.91 40.90 C 219.01 54.25 214.27 68.98 204.36 78.37 C 196.65 85.98 185.75 89.95 175.00 89.94 C 168.77 89.49 162.55 88.03 157.01 85.08 C 146.03 79.35 137.85 68.33 135.96 56.05 C 134.13 46.06 136.36 35.40 141.99 26.95 C 147.57 18.35 156.59 12.10 166.55 9.74 M 170.20 20.26 C 160.27 22.24 151.59 29.60 148.22 39.17 C 146.38 43.87 146.21 49.06 146.83 54.02 C 148.45 64.35 156.10 73.39 165.92 76.91 C 176.90 81.00 190.15 77.83 197.95 69.03 C 205.08 61.45 207.47 49.95 204.23 40.10 C 201.56 31.73 194.86 24.75 186.64 21.67 C 181.46 19.49 175.68 19.68 170.20 20.26 Z" />
<path fill="#231f20" opacity="1.00" d=" M 11.41 36.26 C 21.12 35.25 31.23 34.10 40.71 37.12 C 46.54 39.04 51.08 44.67 50.84 50.95 C 51.39 57.32 47.52 63.13 42.20 66.29 C 46.41 73.65 50.66 80.99 54.97 88.28 C 51.09 88.68 47.19 88.74 43.30 88.41 C 38.47 80.41 34.14 72.11 29.36 64.07 C 32.83 62.18 37.03 60.60 38.79 56.76 C 40.84 52.98 39.64 47.45 35.72 45.39 C 31.52 43.10 26.58 44.33 22.03 44.12 C 22.04 58.87 21.96 73.62 22.04 88.37 C 18.50 88.70 14.95 88.70 11.41 88.40 C 11.41 71.02 11.42 53.64 11.41 36.26 Z" />
<path fill="#231f20" opacity="1.00" d=" M 62.78 36.10 C 66.31 35.89 69.84 35.88 73.37 36.10 C 73.41 44.34 73.41 52.58 73.37 60.82 C 88.74 57.38 104.08 53.79 119.46 50.36 C 119.46 45.61 119.44 40.87 119.48 36.12 C 123.02 35.87 126.57 35.87 130.11 36.14 C 130.12 53.56 130.11 70.98 130.12 88.40 C 126.57 88.78 123.01 88.77 119.46 88.43 C 119.45 80.17 119.45 71.92 119.47 63.66 C 104.09 67.12 88.75 70.71 73.37 74.14 C 73.41 78.91 73.39 83.67 73.39 88.43 C 69.86 88.77 66.30 88.77 62.77 88.42 C 62.77 70.98 62.74 53.54 62.78 36.10 Z" />
<path fill="#231f20" opacity="1.00" d=" M 185.92 36.17 C 186.65 36.15 188.12 36.10 188.85 36.07 C 189.07 38.05 189.31 40.02 189.54 42.00 C 188.57 42.00 186.62 42.00 185.65 42.00 C 185.74 40.06 185.82 38.11 185.92 36.17 Z" />
<path fill="#231f20" opacity="1.00" d=" M 160.40 37.11 C 166.94 34.18 174.68 41.97 171.32 48.40 C 169.26 53.99 161.03 55.45 157.20 50.91 C 153.01 46.83 154.86 38.96 160.40 37.11 Z" />
<path fill="#231f20" opacity="1.00" d=" M 222.07 37.12 C 230.89 36.27 240.80 35.11 248.53 40.47 C 254.93 44.85 255.42 54.00 252.48 60.59 C 260.08 66.47 260.78 79.96 252.60 85.61 C 248.12 88.91 242.41 89.24 237.08 89.71 C 232.04 90.12 227.05 89.09 222.05 88.73 C 222.07 71.52 222.03 54.32 222.07 37.12 M 232.88 45.06 C 232.84 57.02 232.86 68.99 232.88 80.95 C 236.46 80.92 240.32 81.47 243.54 79.50 C 247.18 77.57 247.90 72.82 246.89 69.17 C 245.19 65.39 241.05 63.64 237.25 62.76 C 241.92 60.34 244.59 54.62 242.25 49.67 C 240.70 46.03 236.54 44.79 232.88 45.06 Z" />
<path fill="#231f20" opacity="1.00" d=" M 272.63 40.77 C 273.09 39.52 273.04 37.97 274.00 36.96 C 278.16 36.26 282.41 36.54 286.60 36.92 C 291.73 54.27 296.76 71.66 301.95 89.00 C 298.31 89.51 294.56 89.90 290.95 88.95 C 286.49 75.62 283.31 61.83 280.53 48.04 C 278.39 55.27 276.97 62.69 275.02 69.97 C 273.35 76.34 271.36 82.63 269.72 89.01 C 266.26 89.64 262.73 89.63 259.27 89.05 C 263.77 72.97 268.21 56.87 272.63 40.77 Z" />
<path fill="#231f20" opacity="1.00" d=" M 306.80 36.81 C 309.73 36.53 312.67 36.53 315.60 36.88 C 321.17 47.44 327.10 57.81 332.76 68.33 C 332.68 57.83 332.74 47.33 332.72 36.83 C 335.83 36.53 338.96 36.51 342.08 36.84 C 342.07 54.24 342.08 71.64 342.08 89.04 C 339.18 89.61 336.23 89.59 333.33 89.05 C 327.62 78.70 321.88 68.37 316.12 58.05 C 316.18 68.38 316.13 78.71 316.15 89.04 C 313.05 89.61 309.90 89.62 306.80 89.07 C 306.80 71.65 306.81 54.23 306.80 36.81 Z" />
<path fill="#231f20" opacity="1.00" d=" M 178.59 43.66 C 178.99 42.68 179.39 41.70 179.79 40.72 C 181.60 41.19 183.39 41.70 185.20 42.19 C 184.81 43.44 184.40 44.69 184.00 45.94 C 182.18 45.20 180.39 44.43 178.59 43.66 Z" />
<path fill="#231f20" opacity="1.00" d=" M 189.80 42.22 C 191.73 41.67 193.66 41.17 195.62 40.73 C 195.80 41.46 196.16 42.92 196.33 43.65 C 194.58 44.42 192.82 45.20 191.06 45.97 C 190.63 44.72 190.21 43.47 189.80 42.22 Z" />
<path fill="#231f20" opacity="1.00" d=" M 181.01 51.28 C 182.04 49.69 183.07 48.10 184.09 46.51 C 185.19 47.28 186.29 48.06 187.38 48.85 C 186.08 50.32 184.77 51.77 183.46 53.23 C 182.64 52.58 181.82 51.93 181.01 51.28 Z" />
<path fill="#231f20" opacity="1.00" d=" M 187.77 48.78 C 188.86 47.99 189.95 47.21 191.06 46.44 C 192.06 48.09 193.07 49.73 194.03 51.41 C 193.21 52.01 192.40 52.61 191.59 53.20 C 190.30 51.73 189.02 50.27 187.77 48.78 Z" />
<path fill="#231f20" opacity="1.00" d=" M 29.47 121.14 C 29.47 114.15 28.65 106.98 29.86 100.10 C 32.26 102.36 30.59 106.25 31.04 109.20 C 34.38 109.20 37.72 109.20 41.06 109.20 C 41.06 106.39 41.06 103.57 41.04 100.75 C 41.51 100.75 42.44 100.75 42.91 100.75 C 42.76 107.56 43.13 114.38 42.67 121.18 C 42.32 120.94 41.61 120.46 41.26 120.22 C 40.82 117.14 41.13 114.01 41.06 110.91 C 37.73 110.91 34.40 110.91 31.07 110.91 C 31.02 113.95 31.21 117.00 30.93 120.03 C 30.56 120.31 29.83 120.86 29.47 121.14 Z" />
<path fill="#231f20" opacity="1.00" d=" M 181.11 100.80 C 181.89 100.76 182.67 100.72 183.45 100.69 C 184.72 106.48 185.65 112.37 187.42 118.05 C 188.72 112.68 189.96 107.29 191.54 102.00 C 191.70 100.74 193.14 100.80 194.03 100.39 C 195.52 106.44 197.22 112.44 198.52 118.54 C 199.96 112.64 201.21 106.69 202.50 100.76 C 203.00 100.74 204.00 100.70 204.51 100.69 C 203.08 107.37 201.35 113.98 199.74 120.62 C 199.12 120.59 197.89 120.55 197.27 120.52 C 195.75 115.05 194.86 109.37 192.66 104.11 C 191.19 109.51 190.10 115.02 188.37 120.34 C 187.82 120.46 186.71 120.71 186.16 120.83 C 184.32 114.19 182.96 107.43 181.11 100.80 Z" />
<path fill="#231f20" opacity="1.00" d=" M 251.08 100.78 C 251.76 100.76 252.44 100.74 253.12 100.73 C 253.12 107.30 253.10 113.87 253.13 120.44 C 252.65 120.52 251.67 120.68 251.18 120.77 C 250.99 114.10 251.16 107.44 251.08 100.78 Z" />
<path fill="#231f20" opacity="1.00" d=" M 298.86 100.72 C 299.53 100.74 300.21 100.76 300.88 100.79 C 300.81 107.41 300.93 114.04 300.80 120.67 C 300.32 120.64 299.35 120.58 298.86 120.55 C 298.86 117.33 298.86 114.12 298.85 110.91 C 295.62 110.91 292.40 110.91 289.18 110.91 C 289.16 114.11 289.16 117.32 289.17 120.53 C 288.68 120.58 287.72 120.67 287.24 120.72 C 287.06 114.07 287.21 107.42 287.14 100.77 C 287.65 100.76 288.66 100.73 289.17 100.72 C 289.16 103.55 289.16 106.37 289.16 109.20 C 292.39 109.20 295.63 109.20 298.87 109.20 C 298.86 106.37 298.86 103.55 298.86 100.72 Z" />
<path fill="#231f20" opacity="1.00" d=" M 10.97 100.79 C 15.20 100.76 19.42 100.77 23.64 100.78 L 23.61 102.44 C 21.83 102.45 20.05 102.45 18.27 102.46 C 18.26 108.62 18.35 114.78 18.21 120.95 C 15.48 121.28 16.57 118.46 16.26 117.00 C 16.27 112.15 16.30 107.29 16.28 102.44 C 14.57 102.44 12.86 102.45 11.15 102.46 C 11.10 102.05 11.02 101.21 10.97 100.79 Z" />
<path fill="#231f20" opacity="1.00" d=" M 50.87 100.77 C 54.39 100.78 57.92 100.77 61.45 100.77 L 61.55 102.46 C 58.67 102.49 55.79 102.48 52.91 102.47 C 52.90 104.71 52.90 106.96 52.90 109.20 C 55.20 109.20 57.50 109.20 59.79 109.21 C 59.80 109.63 59.83 110.46 59.84 110.88 C 57.53 110.90 55.22 110.91 52.91 110.91 C 52.90 113.54 52.90 116.17 52.91 118.80 C 56.04 119.33 60.43 117.31 62.61 120.28 C 58.70 120.62 54.78 120.47 50.87 120.51 C 50.87 113.93 50.87 107.35 50.87 100.77 Z" />
<path fill="#231f20" opacity="1.00" d=" M 77.71 121.29 C 77.17 114.41 77.57 107.49 77.46 100.60 C 81.12 100.45 86.58 99.80 88.13 104.10 C 89.68 107.64 86.91 110.73 84.00 112.32 C 86.21 115.15 88.51 117.95 90.22 121.13 C 85.69 119.66 84.15 114.48 80.92 111.37 C 83.44 110.61 86.94 109.28 86.52 106.01 C 86.51 102.22 82.12 101.80 79.27 101.95 C 79.05 107.98 79.55 114.04 79.03 120.05 L 77.71 121.29 Z" />
<path fill="#231f20" opacity="1.00" d=" M 99.32 101.09 C 102.52 99.78 106.71 100.43 108.81 103.36 C 111.24 106.77 111.22 111.37 110.19 115.28 C 109.00 119.88 103.16 122.55 99.02 120.02 C 95.52 118.50 94.64 114.35 94.42 110.93 C 94.48 107.21 95.53 102.68 99.32 101.09 M 101.32 102.20 C 95.97 103.77 96.05 110.46 97.06 114.89 C 97.96 119.34 104.51 120.59 107.14 117.04 C 109.28 113.84 109.58 109.50 108.06 105.98 C 107.15 103.31 104.10 101.47 101.32 102.20 Z" />
<path fill="#231f20" opacity="1.00" d=" M 117.93 100.67 C 121.35 100.61 126.00 99.69 128.12 103.16 C 129.55 105.60 128.14 108.20 126.21 109.83 C 128.59 111.13 130.83 113.67 129.78 116.57 C 128.04 121.20 122.17 121.32 118.04 120.76 C 117.81 114.07 117.99 107.37 117.93 100.67 M 119.73 101.95 C 119.70 104.40 119.70 106.86 119.71 109.32 C 122.52 109.38 126.19 109.37 126.79 105.86 C 126.55 102.26 122.56 101.76 119.73 101.95 M 119.72 110.83 C 119.70 113.58 119.70 116.34 119.70 119.09 C 122.19 119.09 124.69 118.87 127.07 118.04 C 127.50 116.36 128.34 114.47 127.16 112.89 C 125.54 110.41 122.22 111.07 119.72 110.83 Z" />
<path fill="#231f20" opacity="1.00" d=" M 140.30 101.06 C 143.69 99.68 148.23 100.60 150.10 103.96 C 152.01 107.27 152.02 111.40 151.11 115.03 C 150.15 119.70 144.20 122.57 140.03 120.08 C 136.47 118.60 135.55 114.48 135.35 111.02 C 135.37 107.25 136.38 102.60 140.30 101.06 M 141.45 102.49 C 136.75 104.52 136.96 110.68 137.91 114.89 C 138.83 119.05 144.46 120.41 147.49 117.69 C 150.09 114.76 150.18 110.42 149.28 106.80 C 148.54 103.51 144.68 100.95 141.45 102.49 Z" />
<path fill="#231f20" opacity="1.00" d=" M 155.34 100.79 C 159.57 100.77 163.80 100.76 168.03 100.79 C 167.98 101.21 167.90 102.05 167.85 102.46 C 166.14 102.45 164.43 102.44 162.72 102.44 C 162.71 108.50 162.76 114.56 162.69 120.63 C 162.20 120.62 161.22 120.60 160.72 120.59 C 160.72 114.54 160.71 108.50 160.73 102.46 C 158.96 102.45 157.19 102.45 155.42 102.44 L 155.34 100.79 Z" />
<path fill="#231f20" opacity="1.00" d=" M 213.48 101.43 C 216.34 99.86 220.19 100.17 222.71 102.28 C 225.04 104.54 225.60 107.97 225.65 111.07 C 225.44 114.53 224.50 118.65 220.93 120.10 C 216.76 122.56 210.83 119.68 209.88 115.01 C 208.76 110.41 208.96 104.15 213.48 101.43 M 215.41 102.48 C 210.57 104.68 210.49 111.38 212.17 115.69 C 213.59 119.89 220.34 120.31 222.35 116.42 C 223.98 113.63 223.77 110.11 223.24 107.03 C 222.68 103.64 218.69 100.94 215.41 102.48 Z" />
<path fill="#231f20" opacity="1.00" d=" M 232.57 100.60 C 236.35 100.40 242.11 99.83 243.41 104.49 C 244.82 107.91 241.79 110.73 239.15 112.35 C 241.32 115.21 243.80 117.92 245.19 121.29 C 240.91 119.42 239.25 114.59 236.10 111.44 C 238.56 110.57 242.03 109.27 241.63 106.01 C 241.66 102.25 237.32 101.81 234.49 101.94 C 234.43 108.16 234.49 114.38 234.45 120.60 L 232.58 120.59 C 232.56 113.93 232.56 107.26 232.57 100.60 Z" />
<path fill="#231f20" opacity="1.00" d=" M 254.38 110.56 C 257.36 107.18 258.91 101.78 263.50 100.34 C 261.43 103.79 258.97 106.97 256.62 110.22 C 259.27 113.72 262.00 117.17 264.54 120.75 C 263.51 120.49 262.17 120.66 261.53 119.62 C 259.08 116.66 256.89 113.48 254.38 110.56 Z" />
<path fill="#231f20" opacity="1.00" d=" M 270.27 102.34 C 272.89 99.65 277.01 100.46 280.28 101.19 C 277.96 103.40 274.24 100.80 272.06 103.24 C 270.89 104.39 270.93 106.56 272.26 107.59 C 274.75 109.20 277.98 109.73 279.93 112.12 C 281.64 114.85 280.40 119.12 277.23 120.14 C 274.50 121.56 271.38 120.98 268.61 120.02 C 268.73 119.62 268.98 118.82 269.11 118.42 C 271.50 118.78 274.18 119.60 276.49 118.46 C 278.68 117.50 279.43 114.33 277.64 112.62 C 275.33 110.97 272.57 110.11 270.06 108.81 C 269.26 106.69 268.64 104.25 270.27 102.34 Z" />
<path fill="#231f20" opacity="1.00" d=" M 312.44 101.14 C 315.77 99.71 320.19 100.44 322.26 103.62 C 324.95 107.86 324.88 113.81 322.09 117.98 C 318.80 122.64 310.61 121.60 308.76 116.15 C 306.78 111.20 307.26 103.96 312.44 101.14 M 313.54 102.66 C 310.65 103.86 309.85 107.21 309.80 110.04 C 309.75 112.96 310.09 116.47 312.75 118.25 C 315.30 119.80 319.18 119.25 320.78 116.57 C 322.41 113.53 322.49 109.79 321.54 106.52 C 320.77 103.22 316.63 100.87 313.54 102.66 Z" />
<path fill="#231f20" opacity="1.00" d=" M 331.05 100.70 C 334.95 100.29 339.34 100.08 342.17 103.31 C 342.14 105.84 343.06 109.04 340.80 110.90 C 338.89 113.11 335.66 112.74 333.04 112.97 C 332.62 115.71 334.37 119.69 331.37 121.31 C 330.71 114.47 331.21 107.57 331.05 100.70 M 333.12 101.94 C 333.05 105.01 333.05 108.08 333.10 111.15 C 334.89 110.97 336.78 111.17 338.50 110.53 C 340.72 109.04 341.26 105.56 339.47 103.53 C 337.72 101.97 335.29 102.13 333.12 101.94 Z" />
</g>
</svg>
