<?xml version="1.0" encoding="UTF-8" standalone="no"?>
<svg
   width="361pt"
   height="131pt"
   viewBox="0 0 361 131"
   version="1.1"
   id="svg1928"
   sodipodi:docname="rhoban_logo.svg"
   inkscape:version="1.1 (c68e22c387, 2021-05-23)"
   xmlns:inkscape="http://www.inkscape.org/namespaces/inkscape"
   xmlns:sodipodi="http://sodipodi.sourceforge.net/DTD/sodipodi-0.dtd"
   xmlns="http://www.w3.org/2000/svg"
   xmlns:svg="http://www.w3.org/2000/svg">
  <defs
     id="defs1932" />
  <sodipodi:namedview
     id="namedview1930"
     pagecolor="#ffffff"
     bordercolor="#666666"
     borderopacity="1.0"
     inkscape:pageshadow="2"
     inkscape:pageopacity="0.0"
     inkscape:pagecheckerboard="0"
     inkscape:document-units="pt"
     showgrid="false"
     inkscape:zoom="2.3123269"
     inkscape:cx="240.66667"
     inkscape:cy="87.141659"
     inkscape:window-width="1920"
     inkscape:window-height="1057"
     inkscape:window-x="1912"
     inkscape:window-y="-8"
     inkscape:window-maximized="1"
     inkscape:current-layer="svg1928" />
  <g
     id="#ffffffff" />
  <g
     id="#231f20ff"
     transform="translate(2.9191375,14.595687)">
    <path
       fill="#231f20"
       opacity="1"
       d="m 166.55,9.74 c 9.9,-2.32 20.69,-0.94 29.54,4.13 10.09,5.58 17.57,15.71 19.82,27.03 3.1,13.35 -1.64,28.08 -11.55,37.47 -7.71,7.61 -18.61,11.58 -29.36,11.57 -6.23,-0.45 -12.45,-1.91 -17.99,-4.86 -10.98,-5.73 -19.16,-16.75 -21.05,-29.03 -1.83,-9.99 0.4,-20.65 6.03,-29.1 5.58,-8.6 14.6,-14.85 24.56,-17.21 m 3.65,10.52 c -9.93,1.98 -18.61,9.34 -21.98,18.91 -1.84,4.7 -2.01,9.89 -1.39,14.85 1.62,10.33 9.27,19.37 19.09,22.89 10.98,4.09 24.23,0.92 32.03,-7.88 7.13,-7.58 9.52,-19.08 6.28,-28.93 -2.67,-8.37 -9.37,-15.35 -17.59,-18.43 -5.18,-2.18 -10.96,-1.99 -16.44,-1.41 z"
       id="path1869" />
    <path
       fill="#231f20"
       opacity="1"
       d="m 11.41,36.26 c 9.71,-1.01 19.82,-2.16 29.3,0.86 5.83,1.92 10.37,7.55 10.13,13.83 0.55,6.37 -3.32,12.18 -8.64,15.34 4.21,7.36 8.46,14.7 12.77,21.99 -3.88,0.4 -7.78,0.46 -11.67,0.13 -4.83,-8 -9.16,-16.3 -13.94,-24.34 3.47,-1.89 7.67,-3.47 9.43,-7.31 2.05,-3.78 0.85,-9.31 -3.07,-11.37 -4.2,-2.29 -9.14,-1.06 -13.69,-1.27 0.01,14.75 -0.07,29.5 0.01,44.25 -3.54,0.33 -7.09,0.33 -10.63,0.03 0,-17.38 0.01,-34.76 0,-52.14 z"
       id="path1871" />
    <path
       fill="#231f20"
       opacity="1"
       d="m 62.78,36.1 c 3.53,-0.21 7.06,-0.22 10.59,0 0.04,8.24 0.04,16.48 0,24.72 15.37,-3.44 30.71,-7.03 46.09,-10.46 0,-4.75 -0.02,-9.49 0.02,-14.24 3.54,-0.25 7.09,-0.25 10.63,0.02 0.01,17.42 0,34.84 0.01,52.26 -3.55,0.38 -7.11,0.37 -10.66,0.03 -0.01,-8.26 -0.01,-16.51 0.01,-24.77 -15.38,3.46 -30.72,7.05 -46.1,10.48 0.04,4.77 0.02,9.53 0.02,14.29 -3.53,0.34 -7.09,0.34 -10.62,-0.01 0,-17.44 -0.03,-34.88 0.01,-52.32 z"
       id="path1873" />
    <path
       fill="#231f20"
       opacity="1"
       d="m 185.92,36.17 c 0.73,-0.02 2.2,-0.07 2.93,-0.1 0.22,1.98 0.46,3.95 0.69,5.93 -0.97,0 -2.92,0 -3.89,0 0.09,-1.94 0.17,-3.89 0.27,-5.83 z"
       id="path1875" />
    <path
       fill="#231f20"
       opacity="1"
       d="m 160.4,37.11 c 6.54,-2.93 14.28,4.86 10.92,11.29 -2.06,5.59 -10.29,7.05 -14.12,2.51 -4.19,-4.08 -2.34,-11.95 3.2,-13.8 z"
       id="path1877" />
    <path
       fill="#231f20"
       opacity="1"
       d="m 222.07,37.12 c 8.82,-0.85 18.73,-2.01 26.46,3.35 6.4,4.38 6.89,13.53 3.95,20.12 7.6,5.88 8.3,19.37 0.12,25.02 -4.48,3.3 -10.19,3.63 -15.52,4.1 -5.04,0.41 -10.03,-0.62 -15.03,-0.98 0.02,-17.21 -0.02,-34.41 0.02,-51.61 m 10.81,7.94 c -0.04,11.96 -0.02,23.93 0,35.89 3.58,-0.03 7.44,0.52 10.66,-1.45 3.64,-1.93 4.36,-6.68 3.35,-10.33 -1.7,-3.78 -5.84,-5.53 -9.64,-6.41 4.67,-2.42 7.34,-8.14 5,-13.09 -1.55,-3.64 -5.71,-4.88 -9.37,-4.61 z"
       id="path1879" />
    <path
       fill="#231f20"
       opacity="1"
       d="m 272.63,40.77 c 0.46,-1.25 0.41,-2.8 1.37,-3.81 4.16,-0.7 8.41,-0.42 12.6,-0.04 5.13,17.35 10.16,34.74 15.35,52.08 -3.64,0.51 -7.39,0.9 -11,-0.05 -4.46,-13.33 -7.64,-27.12 -10.42,-40.91 -2.14,7.23 -3.56,14.65 -5.51,21.93 -1.67,6.37 -3.66,12.66 -5.3,19.04 -3.46,0.63 -6.99,0.62 -10.45,0.04 4.5,-16.08 8.94,-32.18 13.36,-48.28 z"
       id="path1881" />
    <path
       fill="#231f20"
       opacity="1"
       d="m 306.8,36.81 c 2.93,-0.28 5.87,-0.28 8.8,0.07 5.57,10.56 11.5,20.93 17.16,31.45 -0.08,-10.5 -0.02,-21 -0.04,-31.5 3.11,-0.3 6.24,-0.32 9.36,0.01 -0.01,17.4 0,34.8 0,52.2 -2.9,0.57 -5.85,0.55 -8.75,0.01 -5.71,-10.35 -11.45,-20.68 -17.21,-31 0.06,10.33 0.01,20.66 0.03,30.99 -3.1,0.57 -6.25,0.58 -9.35,0.03 0,-17.42 0.01,-34.84 0,-52.26 z"
       id="path1883" />
    <path
       fill="#231f20"
       opacity="1"
       d="m 178.59,43.66 c 0.4,-0.98 0.8,-1.96 1.2,-2.94 1.81,0.47 3.6,0.98 5.41,1.47 -0.39,1.25 -0.8,2.5 -1.2,3.75 -1.82,-0.74 -3.61,-1.51 -5.41,-2.28 z"
       id="path1885" />
    <path
       fill="#231f20"
       opacity="1"
       d="m 189.8,42.22 c 1.93,-0.55 3.86,-1.05 5.82,-1.49 0.18,0.73 0.54,2.19 0.71,2.92 -1.75,0.77 -3.51,1.55 -5.27,2.32 -0.43,-1.25 -0.85,-2.5 -1.26,-3.75 z"
       id="path1887" />
    <path
       fill="#231f20"
       opacity="1"
       d="m 181.01,51.28 c 1.03,-1.59 2.06,-3.18 3.08,-4.77 1.1,0.77 2.2,1.55 3.29,2.34 -1.3,1.47 -2.61,2.92 -3.92,4.38 -0.82,-0.65 -1.64,-1.3 -2.45,-1.95 z"
       id="path1889" />
    <path
       fill="#231f20"
       opacity="1"
       d="m 187.77,48.78 c 1.09,-0.79 2.18,-1.57 3.29,-2.34 1,1.65 2.01,3.29 2.97,4.97 -0.82,0.6 -1.63,1.2 -2.44,1.79 -1.29,-1.47 -2.57,-2.93 -3.82,-4.42 z"
       id="path1891" />
  </g>
</svg>
