<?xml version="1.0" encoding="UTF-8" standalone="no"?>
<svg
   width="90pt"
   height="90pt"
   viewBox="0 0 90 90"
   version="1.1"
   id="svg1928"
   sodipodi:docname="rhoban_logo_mini.svg"
   inkscape:version="1.1 (c68e22c387, 2021-05-23)"
   xmlns:inkscape="http://www.inkscape.org/namespaces/inkscape"
   xmlns:sodipodi="http://sodipodi.sourceforge.net/DTD/sodipodi-0.dtd"
   xmlns="http://www.w3.org/2000/svg"
   xmlns:svg="http://www.w3.org/2000/svg">
  <defs
     id="defs1932" />
  <sodipodi:namedview
     id="namedview1930"
     pagecolor="#ffffff"
     bordercolor="#666666"
     borderopacity="1.0"
     inkscape:pageshadow="2"
     inkscape:pageopacity="0.0"
     inkscape:pagecheckerboard="0"
     inkscape:document-units="pt"
     showgrid="false"
     inkscape:zoom="2.3123269"
     inkscape:cx="152.01138"
     inkscape:cy="87.141659"
     inkscape:window-width="1920"
     inkscape:window-height="1057"
     inkscape:window-x="1912"
     inkscape:window-y="-8"
     inkscape:window-maximized="1"
     inkscape:current-layer="svg1928"
     width="360pt" />
  <g
     id="#ffffffff" />
  <g
     id="#231f20ff"
     transform="translate(-130.83359,-4.2486646)">
    <path
       fill="#231f20"
       opacity="1"
       d="m 166.55,9.74 c 9.9,-2.32 20.69,-0.94 29.54,4.13 10.09,5.58 17.57,15.71 19.82,27.03 3.1,13.35 -1.64,28.08 -11.55,37.47 -7.71,7.61 -18.61,11.58 -29.36,11.57 -6.23,-0.45 -12.45,-1.91 -17.99,-4.86 -10.98,-5.73 -19.16,-16.75 -21.05,-29.03 -1.83,-9.99 0.4,-20.65 6.03,-29.1 5.58,-8.6 14.6,-14.85 24.56,-17.21 m 3.65,10.52 c -9.93,1.98 -18.61,9.34 -21.98,18.91 -1.84,4.7 -2.01,9.89 -1.39,14.85 1.62,10.33 9.27,19.37 19.09,22.89 10.98,4.09 24.23,0.92 32.03,-7.88 7.13,-7.58 9.52,-19.08 6.28,-28.93 -2.67,-8.37 -9.37,-15.35 -17.59,-18.43 -5.18,-2.18 -10.96,-1.99 -16.44,-1.41 z"
       id="path1869" />
    <path
       fill="#231f20"
       opacity="1"
       d="m 185.92,36.17 c 0.73,-0.02 2.2,-0.07 2.93,-0.1 0.22,1.98 0.46,3.95 0.69,5.93 -0.97,0 -2.92,0 -3.89,0 0.09,-1.94 0.17,-3.89 0.27,-5.83 z"
       id="path1875" />
    <path
       fill="#231f20"
       opacity="1"
       d="m 160.4,37.11 c 6.54,-2.93 14.28,4.86 10.92,11.29 -2.06,5.59 -10.29,7.05 -14.12,2.51 -4.19,-4.08 -2.34,-11.95 3.2,-13.8 z"
       id="path1877" />
    <path
       fill="#231f20"
       opacity="1"
       d="m 178.59,43.66 c 0.4,-0.98 0.8,-1.96 1.2,-2.94 1.81,0.47 3.6,0.98 5.41,1.47 -0.39,1.25 -0.8,2.5 -1.2,3.75 -1.82,-0.74 -3.61,-1.51 -5.41,-2.28 z"
       id="path1885" />
    <path
       fill="#231f20"
       opacity="1"
       d="m 189.8,42.22 c 1.93,-0.55 3.86,-1.05 5.82,-1.49 0.18,0.73 0.54,2.19 0.71,2.92 -1.75,0.77 -3.51,1.55 -5.27,2.32 -0.43,-1.25 -0.85,-2.5 -1.26,-3.75 z"
       id="path1887" />
    <path
       fill="#231f20"
       opacity="1"
       d="m 181.01,51.28 c 1.03,-1.59 2.06,-3.18 3.08,-4.77 1.1,0.77 2.2,1.55 3.29,2.34 -1.3,1.47 -2.61,2.92 -3.92,4.38 -0.82,-0.65 -1.64,-1.3 -2.45,-1.95 z"
       id="path1889" />
    <path
       fill="#231f20"
       opacity="1"
       d="m 187.77,48.78 c 1.09,-0.79 2.18,-1.57 3.29,-2.34 1,1.65 2.01,3.29 2.97,4.97 -0.82,0.6 -1.63,1.2 -2.44,1.79 -1.29,-1.47 -2.57,-2.93 -3.82,-4.42 z"
       id="path1891" />
  </g>
</svg>
